<?xml version="1.0" encoding="UTF-8" standalone="no"?><!DOCTYPE svg PUBLIC "-//W3C//DTD SVG 1.1//EN" "http://www.w3.org/Graphics/SVG/1.1/DTD/svg11.dtd"><svg width="100%" height="100%" viewBox="0 0 532 491" version="1.1" xmlns="http://www.w3.org/2000/svg" xmlns:xlink="http://www.w3.org/1999/xlink" xml:space="preserve" xmlns:serif="http://www.serif.com/" style="fill-rule:evenodd;clip-rule:evenodd;stroke-linejoin:round;stroke-miterlimit:1.41421;"><g id="Logo-V5" serif:id="Logo V5"><g id="Fond-pattes" serif:id="Fond pattes"><path d="M168.853,309.964l245.623,13.122l2.226,74.098l-3.339,43.996l-8.905,16.98l-4.082,12.736l-38.587,15.823l-9.599,0.405c-15.828,-4.151 -16.177,-4.8 -27.113,-9.2c-8.689,-3.492 -16.518,-6.642 -23.495,-9.453c-8.423,-3.382 -14.022,-4.546 -18.389,-4.742c-10.81,-1.324 -21.599,-1.338 -32.37,-0.159c-6.334,0.703 -11.531,2.573 -17.416,4.743c-9.741,4.18 -10.872,4.332 -15.471,6.639c-14.442,5.113 -14.253,7.032 -32.006,12.172c-1.223,0.237 -3.434,0.653 -7.599,1.422l-13.423,-287.46" style="fill:#210000;"/><g id="Formes-fond-Pattes" serif:id="Formes fond Pattes"><ellipse cx="442.095" cy="239.911" rx="82.407" ry="87.333" style="fill:#210000;"/><ellipse cx="88.626" cy="236.676" rx="82.407" ry="87.333" style="fill:#210000;"/><ellipse cx="164.331" cy="388.377" rx="82.443" ry="101.672" style="fill:#210000;"/><ellipse cx="366.461" cy="387.299" rx="82.443" ry="101.672" style="fill:#210000;"/><path d="M259.177,111.978c82.974,-3.536 150.338,46.397 150.338,111.437c0,65.041 -67.364,120.716 -150.338,124.252c-82.974,3.536 -150.338,-46.397 -150.338,-111.438c0,-65.04 67.364,-120.715 150.338,-124.251Z" style="fill:#210000;"/><ellipse cx="72.56" cy="233.442" rx="72.56" ry="88.411" style="fill:#210000;"/><ellipse cx="459.198" cy="230.207" rx="72.56" ry="88.411" style="fill:#210000;"/><ellipse cx="180.362" cy="104.599" rx="84.075" ry="102.443" style="fill:#210000;"/><ellipse cx="343.103" cy="102.443" rx="84.075" ry="102.443" style="fill:#210000;"/></g></g><g id="Coussinets-doigts" serif:id="Coussinets doigts"><path d="M58.231,184.26c21.006,-11.667 49.848,1.823 64.367,30.105c14.519,28.282 9.253,60.715 -11.753,72.382c-21.005,11.667 -49.847,-1.822 -64.366,-30.104c-14.519,-28.282 -9.253,-60.716 11.752,-72.383Z" style="fill:#ff6b6b;"/><path d="M466.971,183.789c21.763,10.052 29.277,42.003 16.768,71.306c-12.509,29.302 -40.334,44.932 -62.098,34.88c-21.764,-10.052 -29.278,-42.002 -16.768,-71.305c12.509,-29.303 40.334,-44.933 62.098,-34.881Z" style="fill:#0dcaf2;"/><path d="M170.649,53.673c27.212,-6.432 55.776,17.966 63.747,54.45c7.972,36.484 -7.649,71.327 -34.86,77.759c-27.212,6.433 -55.776,-17.965 -63.747,-54.449c-7.972,-36.485 7.649,-71.327 34.86,-77.76Z" style="fill:#0dcaf2;"/></g><g id="Le-chat" serif:id="Le chat"><path d="M343.464,78.815c29.391,6.517 48.333,35.809 42.275,65.373c-6.059,29.563 -34.84,48.274 -64.231,41.757c-29.39,-6.517 -48.333,-35.809 -42.274,-65.373c6.058,-29.563 34.839,-48.274 64.23,-41.757Z" style="fill:#ff6b6b;"/><path d="M305.308,49.075c0.265,-1.231 1.217,-2.197 2.443,-2.482c1.225,-0.284 2.505,0.165 3.285,1.153c8.473,10.74 26.586,33.701 26.586,33.701l-41.492,10.262c0,0 6.268,-29.117 9.178,-42.634Z" style="fill:#ff6b6b;"/><path d="M394.683,75.525c1.174,-0.407 2.477,-0.109 3.357,0.767c0.88,0.877 1.184,2.179 0.782,3.354c-4.431,12.956 -14.148,41.376 -14.148,41.376l-29.853,-31.682c0,0 27.233,-9.438 39.862,-13.815Z" style="fill:#ff6b6b;"/></g><path id="Coussinet-principal" serif:id="Coussinet principal" d="M175.431,460.69c-12.576,2.088 -30.001,-5.33 -40.414,-12.145c-11.565,-7.57 -18.096,-18.188 -22.558,-28.898c-3.3,-8.294 -5.181,-16.821 -4.987,-25.688c0.07,-7.914 1.006,-15.664 4.274,-22.97c0.904,-6.405 2.578,-12.66 4.987,-18.771c15.515,-29.962 32.47,-58.827 51.054,-86.448c15.565,-17.78 32.048,-34.196 50.341,-47.917c5.927,-3.785 12.507,-6.987 19.709,-9.633c7.854,-3.005 15.605,-4.744 23.271,-5.434c12.069,0.369 22.483,2.043 31.345,4.94c12.743,4.817 23.847,11.379 33.244,19.76c17.125,14.863 32.351,30.81 45.118,48.163c9.218,12.716 17.23,25.532 23.033,38.531c7.053,11.181 13.163,22.459 18.285,33.839c1.321,3.485 2.832,7.692 4.987,14.325c3.508,12.792 5.153,23.845 4.749,27.995c-0.598,8.363 -1.116,11.608 -8.311,29.555c-2.977,8.245 -7.66,16.229 -14.011,23.958c-11.133,11.064 -12.635,14.266 -22.796,16.302c-12.103,2.425 -36.984,-1.647 -37.993,-1.976c-5.774,-1.884 -31.905,-11.293 -32.017,-10.663c-10.667,-5.094 -23.29,-9.742 -41.833,-8.603c-13.297,0.817 -14.821,1.218 -37.565,7.069c-6.189,1.592 -17.095,5.165 -30.919,10.184" style="fill:#0dcaf2;"/><text x="166.74px" y="410.054px" style="font-family:'LoveTaking', 'Love Taking';font-size:176.304px;fill:#fff;">G<tspan x="266.434px " y="410.054px ">o</tspan></text></g></svg>