<?xml version="1.0" encoding="UTF-8" standalone="no"?><!DOCTYPE svg PUBLIC "-//W3C//DTD SVG 1.1//EN" "http://www.w3.org/Graphics/SVG/1.1/DTD/svg11.dtd"><svg width="100%" height="100%" viewBox="0 0 537 496" version="1.1" xmlns="http://www.w3.org/2000/svg" xmlns:xlink="http://www.w3.org/1999/xlink" xml:space="preserve" xmlns:serif="http://www.serif.com/" style="fill-rule:evenodd;clip-rule:evenodd;stroke-linejoin:round;stroke-miterlimit:1.41421;"><g id="Logo-V2" serif:id="Logo V2"><g id="Fond-pattes" serif:id="Fond pattes"><path d="M170.384,313.588l247.849,13.275l2.246,74.964l-3.369,44.511l-8.986,17.179l-4.118,12.884l-38.937,16.008l-9.687,0.41c-15.97,-4.199 -16.323,-4.856 -27.358,-9.308c-8.768,-3.532 -16.668,-6.719 -23.708,-9.563c-8.5,-3.421 -14.149,-4.599 -18.555,-4.798c-10.908,-1.339 -21.796,-1.353 -32.664,-0.16c-6.391,0.711 -11.636,2.603 -17.575,4.798c-9.828,4.229 -10.969,4.383 -15.611,6.717c-14.573,5.172 -14.382,7.115 -32.296,12.314c-1.233,0.24 -3.465,0.661 -7.667,1.439l-13.545,-290.821" style="fill:#fff;"/><g id="Formes-fond-Pattes" serif:id="Formes fond Pattes"><ellipse cx="446.103" cy="242.716" rx="83.154" ry="88.354" style="fill:#fff;"/><ellipse cx="89.43" cy="239.443" rx="83.154" ry="88.354" style="fill:#fff;"/><ellipse cx="165.821" cy="392.918" rx="83.19" ry="102.861" style="fill:#fff;"/><ellipse cx="369.784" cy="391.827" rx="83.19" ry="102.861" style="fill:#fff;"/><path d="M261.527,113.287c83.725,-3.578 151.7,46.94 151.7,112.74c0,65.801 -67.975,122.127 -151.7,125.705c-83.726,3.577 -151.701,-46.94 -151.701,-112.741c0,-65.801 67.975,-122.127 151.701,-125.704Z" style="fill:#fff;"/><ellipse cx="73.217" cy="236.171" rx="73.217" ry="89.445" style="fill:#fff;"/><ellipse cx="463.361" cy="232.899" rx="73.217" ry="89.445" style="fill:#fff;"/><ellipse cx="181.997" cy="105.822" rx="84.838" ry="103.64" style="fill:#fff;"/><ellipse cx="346.213" cy="103.64" rx="84.838" ry="103.64" style="fill:#fff;"/></g></g><g id="Coussinets-doigts" serif:id="Coussinets doigts"><path d="M58.759,186.414c21.196,-11.803 50.3,1.844 64.95,30.457c14.651,28.613 9.337,61.426 -11.859,73.229c-21.196,11.803 -50.299,-1.844 -64.95,-30.457c-14.651,-28.612 -9.337,-61.425 11.859,-73.229Z" style="fill:#ff6b6b;"/><path d="M471.204,185.938c21.961,10.169 29.543,42.493 16.92,72.139c-12.622,29.645 -40.699,45.458 -62.661,35.288c-21.961,-10.169 -29.543,-42.493 -16.92,-72.139c12.622,-29.645 40.7,-45.457 62.661,-35.288Z" style="fill:#0dcaf2;"/><path d="M172.196,54.301c27.458,-6.508 56.281,18.175 64.325,55.086c8.044,36.91 -7.718,72.161 -35.176,78.668c-27.458,6.508 -56.282,-18.175 -64.325,-55.086c-8.044,-36.91 7.718,-72.161 35.176,-78.668Z" style="fill:#0dcaf2;"/></g><g id="Le-chat" serif:id="Le chat"><path d="M346.577,79.736c29.658,6.593 48.772,36.228 42.659,66.137c-6.114,29.909 -35.156,48.839 -64.813,42.246c-29.657,-6.593 -48.772,-36.228 -42.658,-66.137c6.114,-29.909 35.155,-48.839 64.812,-42.246Z" style="fill:#ff6b6b;"/><path d="M308.089,49.586c0.265,-1.231 1.217,-2.199 2.444,-2.483c1.227,-0.284 2.508,0.166 3.287,1.156c8.534,10.847 26.863,34.141 26.863,34.141l-41.868,10.381c0,0 6.344,-29.547 9.274,-43.195Z" style="fill:#ff6b6b;"/><path d="M398.32,76.387c1.173,-0.407 2.477,-0.111 3.358,0.765c0.88,0.876 1.185,2.178 0.784,3.353c-4.459,13.075 -14.301,41.932 -14.301,41.932l-30.124,-32.052c0,0 27.565,-9.579 40.283,-13.998Z" style="fill:#ff6b6b;"/></g><path id="Coussinet-principal" serif:id="Coussinet principal" d="M177.021,466.076c-12.69,2.112 -30.272,-5.392 -40.78,-12.287c-11.67,-7.658 -18.26,-18.401 -22.763,-29.236c-3.33,-8.391 -5.227,-17.018 -5.032,-25.988c0.071,-8.007 1.016,-15.847 4.313,-23.239c0.912,-6.479 2.601,-12.807 5.032,-18.991c15.656,-30.312 32.764,-59.514 51.517,-87.458c15.707,-17.988 32.338,-34.596 50.798,-48.477c5.981,-3.829 12.62,-7.068 19.888,-9.745c7.924,-3.041 15.746,-4.8 23.482,-5.498c12.178,0.373 22.686,2.067 31.628,4.998c12.858,4.873 24.063,11.512 33.546,19.99c17.279,15.037 32.644,31.171 45.526,48.727c9.302,12.864 17.387,25.83 23.243,38.982c7.116,11.311 13.282,22.721 18.45,34.233c1.333,3.527 2.858,7.783 5.032,14.494c3.54,12.941 5.2,24.123 4.792,28.321c-0.603,8.461 -1.126,11.745 -8.386,29.901c-3.004,8.342 -7.73,16.419 -14.137,24.238c-11.235,11.193 -12.751,14.433 -23.003,16.493c-12.213,2.453 -37.32,-1.666 -38.338,-1.999c-5.826,-1.907 -32.194,-11.425 -32.307,-10.788c-10.764,-5.154 -23.501,-9.856 -42.213,-8.703c-13.417,0.826 -14.955,1.232 -37.905,7.151c-6.245,1.61 -17.25,5.226 -31.2,10.303" style="fill:#0dcaf2;"/><text x="168.252px" y="414.039px" style="font-family:'LoveTaking', 'Love Taking';font-size:176.866px;fill:#fff;">G<tspan x="268.263px " y="414.039px ">o</tspan></text></g></svg>